<?xml version="1.0" encoding="utf-8"?>
<!-- Generator: Adobe Illustrator 20.1.0, SVG Export Plug-In . SVG Version: 6.00 Build 0)  -->
<svg version="1.1" xmlns="http://www.w3.org/2000/svg" xmlns:xlink="http://www.w3.org/1999/xlink" x="0px" y="0px"
	 viewBox="0 0 484.5 484.5" style="enable-background:new 0 0 484.5 484.5;" xml:space="preserve">
<style type="text/css">
	.st0{fill:#60C7C9;}
	.st1{fill:#F16181;}
	.st2{opacity:0.2;fill:#27636D;}
	.st3{fill:#EAE5D3;}
	.st4{fill:#EF3F54;}
	.st5{fill:#F68C47;}
</style>
<g id="base">
	<circle class="st0" cx="242.2" cy="242.2" r="242.2"/>
</g>
<g id="frosting">
	<path class="st1" d="M459.9,256.2c0.7-7.9-2.6-15.2-8.3-19.9c5.2-4.8,8.2-11.9,7.4-19.5c-0.8-7.9-5.4-14.5-11.8-18.1
		c4.2-5.7,5.8-13.2,3.7-20.5c-2.2-7.6-7.9-13.2-14.9-15.6c3.1-6.4,3.3-14.1-0.1-20.9c-3.6-7.1-10.2-11.6-17.5-12.6
		c1.9-6.8,0.7-14.4-3.9-20.5c-4.8-6.3-12.2-9.5-19.5-9.2c0.6-7.1-2-14.3-7.6-19.4c-5.9-5.3-13.7-7.1-20.9-5.5
		c-0.7-7.1-4.5-13.7-11-17.7c-6.7-4.2-14.8-4.5-21.5-1.6c-2-6.8-7-12.7-14.1-15.4c-7.4-2.9-15.3-1.7-21.5,2.4
		c-3.2-6.3-9.2-11.2-16.7-12.6c-7.8-1.4-15.4,1.1-20.7,6.3c-4.3-5.6-11.1-9.3-18.7-9.3c-9.6,0-17.9,5.8-21.5,14.1
		c-5.3-6.9-14.4-10.6-23.5-8.6c-7.7,1.7-13.8,7-16.7,13.7c-6.1-3.6-13.8-4.3-20.8-1.4c-7.3,3.1-12.3,9.4-13.9,16.6
		c-6.7-2.4-14.3-1.7-20.7,2.4c-6.6,4.3-10.3,11.5-10.6,18.8c-7-1.1-14.4,0.9-19.9,6.2c-5.7,5.5-8.1,13.2-7,20.4
		c-7.1,0.2-14,3.5-18.5,9.7c-4.6,6.4-5.5,14.4-3.1,21.4c-6.9,1.5-13.1,6.1-16.4,13c-3.4,7.2-2.8,15.2,0.8,21.6
		c-6.5,2.7-11.8,8.3-13.7,15.7c-2,7.7,0,15.4,4.8,21.1c-5.9,3.9-10.1,10.4-10.6,18c-0.6,7.9,2.9,15.2,8.6,19.8
		c-5.1,4.9-8,12-7.1,19.6c0.9,7.9,5.6,14.4,12,17.9c-4.2,5.7-5.7,13.3-3.4,20.6c2.3,7.6,8.1,13.1,15.1,15.4
		c-3,6.4-3.1,14.1,0.4,20.9c3.7,7,10.4,11.4,17.7,12.4c-1.8,6.9-0.5,14.4,4.2,20.5c4.9,6.2,12.3,9.3,19.7,9
		c-0.5,7.1,2.1,14.3,7.9,19.3c5.9,5.2,13.8,6.9,21,5.2c0.8,7,4.7,13.7,11.3,17.6c6.8,4.1,14.8,4.3,21.6,1.3
		c2.1,6.8,7.1,12.6,14.3,15.2c7.4,2.7,15.4,1.5,21.4-2.7c3.3,6.3,9.3,11,16.8,12.3c7.8,1.3,15.4-1.3,20.6-6.6
		c4.4,5.6,11.2,9.1,18.8,9c7.9-0.1,14.9-4.1,19-10.2c5.3,4.7,12.7,6.9,20.2,5.4c1.5-0.3,3-0.7,4.3-1.3l-10.7-45
		c-0.9,0.1-1.9,0.2-2.8,0.4c-6.2,1.3-11.4,4.9-14.7,9.8c-4.2-3.7-9.8-6-15.9-5.9c-6.4,0.1-12.1,2.7-16.3,6.9
		c-3.5-4.5-8.5-7.7-14.5-8.7c-6.3-1.1-12.4,0.4-17.3,3.8c-2.6-5-7-9.1-12.7-11.2c-6-2.2-12.3-1.8-17.7,0.6
		c-1.6-5.4-5.2-10.2-10.4-13.3c-5.5-3.3-11.7-4-17.5-2.7c-0.6-5.6-3.2-11-7.8-15c-4.8-4.2-10.8-6.1-16.7-5.8
		c0.4-5.6-1.2-11.4-4.9-16.2c-3.9-5-9.5-8-15.3-8.8c1.4-5.5,0.9-11.4-1.9-16.8c-2.9-5.7-7.9-9.6-13.5-11.4c2.4-5.1,3-11.1,1.2-16.9
		c-1.9-6.1-6-10.9-11.2-13.7c3.3-4.6,5-10.3,4.3-16.4c-0.7-6.3-3.9-11.8-8.5-15.5c4.1-3.9,6.8-9.2,7.2-15.3
		c0.5-6.4-1.7-12.3-5.5-16.8c4.7-3.1,8.4-7.8,9.9-13.7c1.6-6.2,0.6-12.4-2.3-17.5c5.2-2.2,9.7-6.2,12.3-11.7
		c2.7-5.8,2.9-12.1,0.9-17.7c5.5-1.2,10.6-4.3,14.2-9.2c3.7-5.2,5-11.4,4.1-17.2c5.6-0.1,11.2-2.3,15.6-6.5c4.6-4.4,7-10.2,7.2-16.1
		c5.6,0.9,11.5-0.2,16.6-3.5c5.3-3.5,8.8-8.8,10-14.5c5.3,1.9,11.3,1.9,16.9-0.4c5.9-2.5,10.2-7,12.5-12.5
		c4.9,2.8,10.8,3.9,16.7,2.7c7.7-1.6,13.7-6.9,16.6-13.6c4.3,5.6,11,9.1,18.6,9.1c6.4,0,12.1-2.5,16.4-6.7c3.4,4.5,8.4,7.8,14.4,8.9
		c6.3,1.2,12.4-0.3,17.3-3.6c2.5,5,6.9,9.2,12.5,11.4c5.9,2.3,12.2,2,17.7-0.3c1.6,5.4,5.1,10.3,10.2,13.5
		c5.4,3.3,11.7,4.2,17.4,2.9c0.5,5.6,3.1,11.1,7.6,15.1c4.7,4.3,10.7,6.3,16.6,6c-0.5,5.6,1,11.4,4.7,16.3c3.9,5.1,9.4,8.1,15.2,9
		c-1.5,5.4-1.1,11.4,1.6,16.9c2.9,5.7,7.7,9.7,13.3,11.6c-2.5,5.1-3.2,11-1.5,16.9c1.8,6.1,5.8,11,11,13.9
		c-3.4,4.5-5.1,10.3-4.5,16.3c0.6,6.3,3.7,11.8,8.3,15.6c-4.1,3.8-6.9,9.2-7.4,15.2c-0.5,6.3,1.5,12.3,5.3,16.9
		c-4.8,3-8.5,7.7-10.1,13.6c-1.7,6.1-0.8,12.4,2.1,17.6c-5.2,2.1-9.8,6-12.4,11.5c-2.8,5.7-3,12-1.2,17.6
		c-5.5,1.1-10.7,4.2-14.3,9.1c-0.3,0.4-0.6,0.8-0.8,1.2l37.9,27.4c0.2-0.2,0.4-0.5,0.6-0.7c4.7-6.4,5.7-14.3,3.4-21.3
		c7-1.4,13.2-5.9,16.5-12.7c3.5-7.1,3-15.1-0.6-21.6c6.6-2.6,11.9-8.2,13.9-15.5c2.1-7.6,0.2-15.4-4.5-21.1
		C455.1,270.2,459.3,263.8,459.9,256.2z"/>
</g>
<g id="shadow">
	<path class="st2" d="M243.8,239.3l158.5,129.1c28.3-34.7,45.3-79,45.3-127.3c0-111.3-90.2-201.5-201.5-201.5S44.6,129.8,44.6,241.1
		s90.2,201.5,201.5,201.5c22.1,0,43.4-3.6,63.3-10.2L243.8,239.3z"/>
</g>
<g id="cake">
	<path class="st3" d="M134,73.3C41.3,134.9,16.1,260.1,77.7,352.8c48.1,72.3,134.8,103.6,214.7,84.6l-46.8-196.2l162.8,119.1
		c48.5-66.3,53.2-158.3,5.1-230.7C351.9,36.8,226.8,11.6,134,73.3z"/>
</g>
<g id="decorations">
	<circle class="st4" cx="219.2" cy="133.2" r="21.2"/>
	<circle class="st4" cx="376.4" cy="267" r="24.4"/>
	<circle class="st5" cx="327.7" cy="130" r="24.4"/>
	<circle class="st5" cx="198" cy="262.3" r="21.2"/>
	<circle class="st5" cx="112.9" cy="203.2" r="24.4"/>
	<circle class="st4" cx="181.5" cy="380.1" r="21.2"/>
</g>
</svg>
