<svg xmlns="http://www.w3.org/2000/svg" viewBox="0 0 484.45 484.45"><defs><style>.cls-1{fill:#60c7c9;}.cls-2{fill:#828282;}.cls-3{fill:#27636d;opacity:0.2;}.cls-4{fill:#eae5d3;}</style></defs><title>Artboard 1</title><g id="base"><circle class="cls-1" cx="242.23" cy="242.23" r="242.23"/></g><g id="frosting"><path class="cls-2" d="M456.61,257.26a23.41,23.41,0,0,0-8.28-19.94,23.44,23.44,0,0,0-4.38-37.61,23.44,23.44,0,0,0-11.19-36.17A23.44,23.44,0,0,0,415.14,130a23.44,23.44,0,0,0-23.45-29.73,23.44,23.44,0,0,0-28.5-24.93,23.44,23.44,0,0,0-32.58-19.3A23.44,23.44,0,0,0,295,43a23.44,23.44,0,0,0-37.34-6.29,23.44,23.44,0,0,0-40.18,4.76,23.44,23.44,0,0,0-40.13,5.15,23.44,23.44,0,0,0-34.69,15.18,23.44,23.44,0,0,0-31.33,21.29,23.39,23.39,0,0,0-26.9,26.62,23.44,23.44,0,0,0-21.59,31.11A23.44,23.44,0,0,0,47.37,175.4a23.44,23.44,0,0,0-8.94,36.79A23.44,23.44,0,0,0,36.37,250a23.44,23.44,0,0,0,4.89,37.55,23.44,23.44,0,0,0,11.68,36A23.44,23.44,0,0,0,71,356.84a23.44,23.44,0,0,0,23.86,29.4,23.44,23.44,0,0,0,28.83,24.54,23.44,23.44,0,0,0,32.84,18.85,23.44,23.44,0,0,0,35.73,12.53A23.44,23.44,0,0,0,229.7,448a23.44,23.44,0,0,0,37.85-1.17A23.43,23.43,0,0,0,292,450.92l-10.74-45a23.64,23.64,0,0,0-2.81.38A23.36,23.36,0,0,0,263.76,416a23.43,23.43,0,0,0-32.15,1,23.43,23.43,0,0,0-31.79-4.91,23.43,23.43,0,0,0-30.36-10.64,23.43,23.43,0,0,0-27.9-16,23.43,23.43,0,0,0-24.5-20.85,23.43,23.43,0,0,0-20.27-25,23.43,23.43,0,0,0-15.36-28.27,23.43,23.43,0,0,0-9.92-30.6,23.43,23.43,0,0,0-4.16-31.9,23.43,23.43,0,0,0,1.75-32.12,23.43,23.43,0,0,0,7.6-31.26,23.43,23.43,0,0,0,13.19-29.34,23.43,23.43,0,0,0,18.33-26.46,23.37,23.37,0,0,0,22.86-22.61A23.43,23.43,0,0,0,157.69,89a23.43,23.43,0,0,0,29.47-12.89,23.44,23.44,0,0,0,33.29-10.88,23.43,23.43,0,0,0,34.94,2.46A23.43,23.43,0,0,0,287.11,73a23.43,23.43,0,0,0,30.21,11.05A23.43,23.43,0,0,0,345,100.46a23.43,23.43,0,0,0,24.21,21.18,23.43,23.43,0,0,0,19.93,25.25,23.43,23.43,0,0,0,15,28.47,23.43,23.43,0,0,0,9.51,30.73,23.43,23.43,0,0,0,3.72,32,23.43,23.43,0,0,0-2.19,32.09,23.43,23.43,0,0,0-8,31.15,23.43,23.43,0,0,0-13.58,29.16,23.36,23.36,0,0,0-14.31,9.05c-.29.39-.56.78-.82,1.18l37.93,27.43c.19-.24.39-.48.57-.72a23.41,23.41,0,0,0,3.4-21.32,23.44,23.44,0,0,0,16-34.32,23.44,23.44,0,0,0,9.44-36.67A23.4,23.4,0,0,0,456.61,257.26Z"/></g><g id="shadow"><path class="cls-3" d="M240.76,242.5,395.09,365.84a189.6,189.6,0,0,0,44.09-121.63c0-106.36-87.83-192.58-196.18-192.58S46.83,137.85,46.83,244.21,134.66,436.79,243,436.79a199.31,199.31,0,0,0,61.66-9.71Z"/></g><g id="cake"><path class="cls-4" d="M134.54,80.21C45.06,139.69,20.73,260.44,80.21,349.92a194.62,194.62,0,0,0,207.13,81.6L242.23,242.23,399.29,357.11a194.62,194.62,0,0,0,5-222.57C344.77,45.06,224,20.73,134.54,80.21Z"/></g><g id="decorations"><circle class="cls-1" cx="212.23" cy="143.21" r="21.2"/><circle class="cls-1" cx="240.83" cy="302.22" r="21.2"/><circle class="cls-2" cx="290.23" cy="207.35" r="21.2"/><circle class="cls-1" cx="368.06" cy="277.84" r="24.37"/><circle class="cls-2" cx="335.69" cy="116.03" r="24.37"/><circle class="cls-1" cx="217.85" cy="402.72" r="24.37"/><circle class="cls-1" cx="117.32" cy="194.15" r="24.37"/><circle class="cls-2" cx="155.54" cy="295.13" r="21.2"/></g></svg>